<svg xmlns="http://www.w3.org/2000/svg" viewBox="0 0 372.31 74.82"><defs><style>.cls-1,.cls-2{fill:#fff;}.cls-1{fill-rule:evenodd;}</style></defs><g id="Слой_2" data-name="Слой 2"><g id="Слой_2-2" data-name="Слой 2"><path class="cls-1" d="M354.41,74.75A17.86,17.86,0,0,1,336.52,57c0-13.86,14.91-21.62,26.21-15.9a3,3,0,0,0,1.29.37c1.48,0,1.78-1.84,1.78-3,0-6.49-4.73-11.9-11.38-11.9a21.21,21.21,0,0,0-8.23,1.74,7,7,0,0,1-1.83.46,2.74,2.74,0,0,1-2.43-1.42,2.3,2.3,0,0,1-.31-1.31,3.09,3.09,0,0,1,1.68-2.78,22.78,22.78,0,0,1,11.12-2.59,17.62,17.62,0,0,1,17.89,17.81V57a17.67,17.67,0,0,1-17.9,17.72Zm-.16-28.94A11.29,11.29,0,1,0,365.79,57.1a11.42,11.42,0,0,0-11.54-11.29Z"/><path class="cls-2" d="M117,67a4.83,4.83,0,0,1,.1,1.17,3.62,3.62,0,0,1-1.3,2.6,16.58,16.58,0,0,1-11.39,4A17.56,17.56,0,0,1,86.5,57V3.21a3.26,3.26,0,0,1,6.51,0V56.5c0,6.53,4.7,11.86,11.39,11.86,3.37,0,5.18-.83,7.8-2.75a3,3,0,0,1,4.06.25A2,2,0,0,1,117,67Z"/><path class="cls-2" d="M198.5,74.46a3.19,3.19,0,0,1-3.26-3.26V39.55c0-6.49-4.73-11.91-11.39-11.91s-11.38,5.42-11.38,11.91V71.17c0,4.37-6.51,4.36-6.51,0V24.94a3.27,3.27,0,0,1,3.29-3.29,3.41,3.41,0,0,1,2.68,1.45,1,1,0,0,0,1,.57,3.53,3.53,0,0,0,.69-.18,21,21,0,0,1,10.28-2.94,17.63,17.63,0,0,1,17.89,17.81V71.18a3.2,3.2,0,0,1-3.25,3.28Z"/><path class="cls-2" d="M333.7,68.19a3.72,3.72,0,0,1-1.37,2.6,16.56,16.56,0,0,1-11.37,4A17.65,17.65,0,0,1,303,57V31.34c0-3-1.66-4.3-4.54-4.3H296.2a2.62,2.62,0,0,1,0-5.24h2.21c2.84,0,4.54-1.36,4.54-4.3V3.34c0-4.33,6.63-4.31,6.63,0V17.5c0,2.9,1.44,4.3,4.56,4.3h12.39a2.67,2.67,0,0,1,2.64,2.62A2.69,2.69,0,0,1,326.54,27H314.15c-3.12,0-4.56,1.4-4.56,4.3V57c0,6.61,4.62,11.87,11.4,11.87a11.27,11.27,0,0,0,7-2.3,4.51,4.51,0,0,1,2.88-1.08,3,3,0,0,1,1.67.53,2.79,2.79,0,0,1,1.19,2.2Z"/><path class="cls-2" d="M229.05,74.61A17.56,17.56,0,0,1,211.16,57V38.52A17.62,17.62,0,0,1,229.05,20.7a18.86,18.86,0,0,1,7.84,1.71,3.91,3.91,0,0,0,1.32.28,2.23,2.23,0,0,0,2.23-2.42v-17c0-4.32,6.52-4.3,6.52,0V56.88a17.63,17.63,0,0,1-17.91,17.73Zm11.39-35.35c0-6.49-4.72-11.91-11.38-11.91s-11.38,5.42-11.38,11.91V56.5c0,6.53,4.69,11.86,11.38,11.86S240.44,63,240.44,56.5V39.26Z"/><path class="cls-1" d="M138.21,74.75A17.87,17.87,0,0,1,120.32,57c0-13.86,14.91-21.62,26.22-15.9a2.94,2.94,0,0,0,1.28.37c1.48,0,1.79-1.84,1.79-3,0-6.48-4.74-11.9-11.39-11.9A21.21,21.21,0,0,0,130,28.34a6.8,6.8,0,0,1-1.83.46,2.73,2.73,0,0,1-2.42-1.42,2.22,2.22,0,0,1-.32-1.31,3.08,3.08,0,0,1,1.69-2.78,22.76,22.76,0,0,1,11.12-2.59,17.63,17.63,0,0,1,17.89,17.81V57a17.68,17.68,0,0,1-17.91,17.72Zm-.16-28.94A11.29,11.29,0,1,0,149.6,57.1a11.42,11.42,0,0,0-11.55-11.29Z"/><path class="cls-1" d="M272.62,74.75A17.87,17.87,0,0,1,254.72,57c0-13.86,14.91-21.62,26.22-15.9a2.94,2.94,0,0,0,1.29.37c1.48,0,1.78-1.84,1.78-3,0-6.49-4.74-11.9-11.39-11.9a21.12,21.12,0,0,0-8.22,1.74,7,7,0,0,1-1.83.46,2.74,2.74,0,0,1-2.43-1.42,2.3,2.3,0,0,1-.31-1.31,3.06,3.06,0,0,1,1.69-2.78,22.69,22.69,0,0,1,11.11-2.59,17.63,17.63,0,0,1,17.89,17.81V57a17.67,17.67,0,0,1-17.9,17.72Zm-.17-28.94A11.29,11.29,0,1,0,284,57.1a11.42,11.42,0,0,0-11.55-11.29Z"/><path class="cls-1" d="M34.21,54.55A20.28,20.28,0,1,1,54.49,74.82,20.28,20.28,0,0,1,34.21,54.55ZM0,0H54.68A20.05,20.05,0,0,1,74.73,20.05v9.59a32.09,32.09,0,0,0-45.2,45.08H20.05a20.05,20.05,0,0,1-20-20V0Z"/></g></g></svg>